<svg xmlns="http://www.w3.org/2000/svg" xmlns:xlink="http://www.w3.org/1999/xlink" version="1.1" width="256" height="256" viewBox="0 0 256 256" xml:space="preserve">

<defs>
</defs>
<g style="stroke: none; stroke-width: 0; stroke-dasharray: none; stroke-linecap: butt; stroke-linejoin: miter; stroke-miterlimit: 10; fill: none; fill-rule: nonzero; opacity: 1;" transform="translate(1.4065934065934016 1.4065934065934016) scale(2.81 2.81)" >
	<path d="M 84.312 22.694 h -0.335 c -0.037 -3.108 -2.573 -5.625 -5.689 -5.625 H 50.062 c -0.709 0 -1.403 -0.288 -1.904 -0.789 l -8.645 -8.645 c -1.075 -1.075 -2.505 -1.667 -4.025 -1.667 H 5.693 C 2.554 5.968 0 8.522 0 11.661 v 56.344 v 8.649 v 2.867 c 0 2.486 2.023 4.51 4.51 4.51 h 79.801 c 3.137 0 5.688 -2.552 5.688 -5.688 V 28.383 C 90 25.246 87.448 22.694 84.312 22.694 z M 6.02 28.383 v 51.139 c 0 0.832 -0.677 1.51 -1.51 1.51 S 3 80.354 3 79.521 v -2.867 v -8.649 V 11.661 c 0 -1.485 1.208 -2.693 2.693 -2.693 h 29.794 c 0.719 0 1.396 0.28 1.904 0.789 l 8.645 8.645 c 1.06 1.06 2.526 1.667 4.025 1.667 h 28.226 c 1.461 0 2.649 1.172 2.686 2.625 H 11.708 C 8.572 22.694 6.02 25.246 6.02 28.383 z M 87 78.344 c 0 1.481 -1.206 2.688 -2.688 2.688 H 8.76 c 0.168 -0.473 0.26 -0.98 0.26 -1.51 V 28.383 c 0 -1.482 1.206 -2.688 2.688 -2.688 h 72.603 c 1.482 0 2.688 1.206 2.688 2.688 V 78.344 z" style="stroke: none; stroke-width: 1; stroke-dasharray: none; stroke-linecap: butt; stroke-linejoin: miter; stroke-miterlimit: 10; fill: rgb(0,0,0); fill-rule: nonzero; opacity: 1;" transform=" matrix(1 0 0 1 0 0) " stroke-linecap="round" />
	<path d="M 35.679 72.029 c -0.311 0 -0.62 -0.097 -0.882 -0.286 c -0.462 -0.336 -0.693 -0.904 -0.597 -1.468 l 1.997 -11.645 l -8.46 -8.246 c -0.409 -0.398 -0.556 -0.995 -0.38 -1.538 c 0.177 -0.543 0.646 -0.938 1.211 -1.021 l 11.692 -1.699 l 5.229 -10.595 c 0.253 -0.512 0.774 -0.836 1.345 -0.836 l 0 0 c 0.571 0 1.093 0.324 1.345 0.836 l 5.229 10.594 l 11.692 1.699 c 0.564 0.082 1.034 0.478 1.211 1.021 c 0.176 0.543 0.029 1.14 -0.38 1.538 l -8.461 8.246 l 1.998 11.645 c 0.097 0.563 -0.135 1.132 -0.597 1.468 c -0.464 0.336 -1.074 0.38 -1.58 0.114 l -10.457 -5.498 l -10.458 5.498 C 36.158 71.973 35.918 72.029 35.679 72.029 z M 32.008 50.357 l 6.848 6.676 c 0.354 0.345 0.515 0.841 0.432 1.328 l -1.617 9.426 l 8.465 -4.45 c 0.438 -0.229 0.96 -0.229 1.396 0 l 8.465 4.45 l -1.617 -9.426 c -0.083 -0.487 0.078 -0.983 0.432 -1.328 l 6.849 -6.676 l -9.465 -1.375 c -0.488 -0.071 -0.911 -0.378 -1.129 -0.82 l -4.232 -8.577 l -4.233 8.577 c -0.219 0.442 -0.641 0.749 -1.129 0.82 L 32.008 50.357 z" style="stroke: none; stroke-width: 1; stroke-dasharray: none; stroke-linecap: butt; stroke-linejoin: miter; stroke-miterlimit: 10; fill: rgb(0,0,0); fill-rule: nonzero; opacity: 1;" transform=" matrix(1 0 0 1 0 0) " stroke-linecap="round" />
</g>
</svg>