<?xml version="1.0" encoding="utf-8"?><!-- Uploaded to: SVG Repo, www.svgrepo.com, Generator: SVG Repo Mixer Tools -->
<svg fill="#000000" width="800px" height="800px" viewBox="0 0 24 24" xmlns="http://www.w3.org/2000/svg">
  <path fill-rule="evenodd" d="M2,3 C2,3.55228475 2.44771525,4 3,4 L21,4 C21.5522847,4 22,3.55228475 22,3 C22,2.44771525 21.5522847,2 21,2 L3,2 C2.44771525,2 2,2.44771525 2,3 Z M8,20 C8,21.1045695 8.8954305,22 10,22 L14,22 C15.1045695,22 16,21.1045695 16,20 L16,8 C16,6.8954305 15.1045695,6 14,6 L10,6 C8.8954305,6 8,6.8954305 8,8 L8,20 Z"/>
</svg>