<?xml version="1.0" encoding="utf-8"?><!-- Uploaded to: SVG Repo, www.svgrepo.com, Generator: SVG Repo Mixer Tools -->
<svg fill="#000000" width="800px" height="800px" viewBox="0 0 24 24" xmlns="http://www.w3.org/2000/svg">
  <path fill-rule="evenodd" d="M3,2 C3.55228475,2 4,2.44771525 4,3 L4,21 C4,21.5522847 3.55228475,22 3,22 C2.44771525,22 2,21.5522847 2,21 L2,3 C2,2.44771525 2.44771525,2 3,2 Z M20,8 C21.1045695,8 22,8.8954305 22,10 L22,14 C22,15.1045695 21.1045695,16 20,16 L8,16 C6.8954305,16 6,15.1045695 6,14 L6,10 C6,8.8954305 6.8954305,8 8,8 L20,8 Z"/>
</svg>