<?xml version="1.0" encoding="utf-8"?><!-- Uploaded to: SVG Repo, www.svgrepo.com, Generator: SVG Repo Mixer Tools -->
<svg fill="#000000" width="800px" height="800px" viewBox="0 0 24 24" xmlns="http://www.w3.org/2000/svg">
  <path fill-rule="evenodd" d="M21,2 C20.4477153,2 20,2.44771525 20,3 L20,21 C20,21.5522847 20.4477153,22 21,22 C21.5522847,22 22,21.5522847 22,21 L22,3 C22,2.44771525 21.5522847,2 21,2 Z M4,8 C2.8954305,8 2,8.8954305 2,10 L2,14 C2,15.1045695 2.8954305,16 4,16 L16,16 C17.1045695,16 18,15.1045695 18,14 L18,10 C18,8.8954305 17.1045695,8 16,8 L4,8 Z"/>
</svg>