<?xml version="1.0" encoding="utf-8"?><!-- Uploaded to: SVG Repo, www.svgrepo.com, Generator: SVG Repo Mixer Tools -->
<svg fill="#000000" width="800px" height="800px" viewBox="0 0 24 24" xmlns="http://www.w3.org/2000/svg">
  <path fill-rule="evenodd" d="M22,21 C22,20.4477153 21.5522847,20 21,20 L3,20 C2.44771525,20 2,20.4477153 2,21 C2,21.5522847 2.44771525,22 3,22 L21,22 C21.5522847,22 22,21.5522847 22,21 Z M16,4 C16,2.8954305 15.1045695,2 14,2 L10,2 C8.8954305,2 8,2.8954305 8,4 L8,16 C8,17.1045695 8.8954305,18 10,18 L14,18 C15.1045695,18 16,17.1045695 16,16 L16,4 Z"/>
</svg>