<?xml version="1.0" encoding="iso-8859-1"?>
<!-- Generator: Adobe Illustrator 19.0.0, SVG Export Plug-In . SVG Version: 6.00 Build 0)  -->
<svg version="1.1" id="Layer_1" xmlns="http://www.w3.org/2000/svg" xmlns:xlink="http://www.w3.org/1999/xlink" x="0px" y="0px"
	 viewBox="0 0 512 512" style="enable-background:new 0 0 512 512;" xml:space="preserve">
<g>
	<g>
		<g>
			<path d="M366.933,290.133c80.116,0,145.067-64.948,145.067-145.067S447.049,0,366.933,0c-59.637,0-110.862,35.992-133.158,87.437
				c-6.797-1.383-13.608-2.104-20.442-2.104c-61.385,0-110.933,52.643-110.933,117.333v44.8c0,32.034,10.179,64.191,26.671,90.063
				l-8.639,26.783c-0.684,2.121-0.502,4.408,0.469,6.383c-28.659,5.634-60.333,18.438-99.138,38.862
				C8.389,416.595,0,430.509,0,445.635v57.83c0,4.713,3.82,8.533,8.533,8.533H162.12c0.005,0,0.009,0.001,0.013,0.001h102.4
				c0.005,0,0.009-0.001,0.013-0.001h153.586c4.713,0,8.533-3.821,8.533-8.533v-57.83c0-15.126-8.388-29.04-21.763-36.078
				c-38.805-20.423-70.479-33.228-99.138-38.862c0.971-1.975,1.153-4.262,0.469-6.383l-8.635-26.769
				c10.289-16.245,18.141-35.082,22.617-55.099C334.875,287.428,350.588,290.133,366.933,290.133z M366.933,17.067
				c70.691,0,128,57.307,128,128s-57.309,128-128,128c-17.655,0-34.475-3.575-49.776-10.04c-0.021-0.009-0.041-0.02-0.062-0.029
				c-1.346-0.569-2.676-1.166-3.996-1.778c-0.234-0.109-0.468-0.217-0.701-0.327c-1.293-0.609-2.576-1.235-3.842-1.884
				c-0.137-0.07-0.271-0.144-0.408-0.215c-1.071-0.554-2.13-1.127-3.182-1.709c-0.402-0.223-0.804-0.446-1.204-0.673
				c-1.03-0.584-2.05-1.181-3.06-1.792c-0.526-0.318-1.045-0.647-1.565-0.973c-0.611-0.382-1.219-0.768-1.823-1.159
				c-0.595-0.386-1.189-0.774-1.777-1.17c-0.435-0.293-0.864-0.594-1.295-0.892c-1.137-0.786-2.262-1.587-3.372-2.408
				c-0.286-0.211-0.571-0.422-0.855-0.636c-2.267-1.707-4.477-3.487-6.623-5.338c-0.132-0.114-0.264-0.228-0.396-0.342
				c-2.184-1.899-4.302-3.871-6.353-5.911c-0.138-0.137-0.275-0.274-0.412-0.412c-1.96-1.968-3.854-4.002-5.684-6.094
				c-0.264-0.302-0.527-0.605-0.788-0.91c-0.532-0.62-1.062-1.241-1.582-1.871c-0.667-0.808-1.324-1.624-1.971-2.448
				c-0.401-0.51-0.791-1.028-1.184-1.544c-0.449-0.591-0.894-1.184-1.332-1.782c-0.324-0.442-0.65-0.882-0.969-1.328
				c-0.721-1.01-1.428-2.029-2.119-3.06c-0.198-0.295-0.39-0.594-0.586-0.89c-0.63-0.957-1.25-1.921-1.854-2.894
				c-0.126-0.203-0.255-0.405-0.38-0.609c-0.755-1.232-1.492-2.475-2.206-3.733c-0.028-0.049-0.055-0.098-0.082-0.147
				c-8.29-14.656-13.729-31.025-15.715-48.291c-0.02-0.174-0.041-0.348-0.06-0.523c-0.323-2.914-0.543-5.854-0.666-8.814
				c-0.014-0.342-0.028-0.683-0.039-1.026c-0.049-1.445-0.082-2.894-0.082-4.349c0-1.007,0.015-2.01,0.038-3.011
				c0.016-0.68,0.042-1.358,0.07-2.036c0.01-0.259,0.018-0.519,0.03-0.778c0.619-13.23,3.341-26.228,8.021-38.785
				c0.18-0.482,0.302-0.969,0.391-1.457C265.979,51.07,312.483,17.067,366.933,17.067z M150.223,363.781
				c14.642,14.466,31.401,24.083,49.113,27.431l-20.662,36.221l-36.33-55.095c-0.007-0.01-0.015-0.019-0.022-0.029l-4.39-6.656
				l3.607-11.182C144.323,357.745,147.222,360.853,150.223,363.781z M213.309,401.239l19.44,33.961h-38.847L213.309,401.239z
				 M185.637,452.267h55.392l12.19,42.667h-79.773L185.637,452.267z M17.067,445.635c0-8.794,4.881-16.89,12.644-20.975
				c40.718-21.43,72.927-34.018,101.346-38.432l38.861,58.93l-14.221,49.774H17.067V445.635z M409.599,445.635v49.297H270.969
				l-14.221-49.774l38.861-58.93c28.419,4.414,60.628,17.002,101.345,38.432C404.718,428.745,409.599,436.842,409.599,445.635z
				 M288.734,365.653l-4.39,6.656c-0.007,0.01-0.015,0.019-0.022,0.029l-36.336,55.103l-20.697-36.221
				c13.563-2.556,26.567-8.791,38.493-18.057c0.919-0.708,1.828-1.438,2.732-2.18c0.085-0.07,0.169-0.139,0.254-0.209
				c5.789-4.773,11.275-10.219,16.38-16.238L288.734,365.653z M282.056,330.101c-0.358,0.372-0.701,0.771-1.004,1.227
				c-6.086,9.137-12.816,17.028-19.985,23.517c-12.683,11.356-27.005,18.684-41.683,20.285c-0.249,0.027-0.498,0.053-0.747,0.076
				c-0.374,0.036-0.748,0.068-1.122,0.096c-0.445,0.033-0.89,0.06-1.335,0.082c-0.231,0.012-0.461,0.027-0.692,0.036
				c-0.717,0.027-1.435,0.044-2.153,0.044c0,0,0,0-0.001,0s-0.001,0-0.001,0c-0.766,0-1.532-0.016-2.297-0.047
				c-19.006-0.797-37.474-11.416-52.79-27.889c-4.444-4.847-8.674-10.26-12.631-16.201c-0.285-0.428-0.603-0.808-0.936-1.161
				c-15.375-23.337-25.212-53.061-25.212-82.699v-44.8c0-55.488,42.146-100.267,93.867-100.267c4.834,0,9.675,0.435,14.534,1.282
				c-3.382,11.38-5.403,23.344-5.879,35.706c-0.01,0.263-0.021,0.526-0.03,0.789c-0.054,1.624-0.091,3.252-0.091,4.89
				c0,1.589,0.035,3.169,0.085,4.745c0.013,0.398,0.029,0.796,0.045,1.194c0.056,1.387,0.13,2.77,0.224,4.147
				c0.013,0.192,0.023,0.385,0.037,0.577c0.12,1.649,0.269,3.29,0.444,4.924c0.013,0.122,0.028,0.243,0.042,0.365
				c0.175,1.599,0.377,3.19,0.603,4.773c0.01,0.07,0.019,0.14,0.029,0.21c2.721,18.825,9.056,36.478,18.28,52.237
				c0.083,0.143,0.168,0.284,0.252,0.426c0.732,1.24,1.48,2.469,2.247,3.685c0.106,0.168,0.209,0.338,0.316,0.506
				c0.795,1.249,1.608,2.484,2.44,3.707c0.251,0.369,0.509,0.734,0.763,1.101c0.572,0.824,1.151,1.642,1.739,2.453
				c0.348,0.481,0.696,0.963,1.05,1.44c0.647,0.87,1.305,1.731,1.971,2.586c0.591,0.76,1.193,1.51,1.8,2.258
				c0.38,0.469,0.761,0.938,1.147,1.402c0.561,0.674,1.126,1.345,1.699,2.009c0.249,0.289,0.504,0.573,0.755,0.86
				c1.222,1.395,2.471,2.767,3.747,4.116c0.15,0.159,0.298,0.319,0.449,0.477c0.725,0.759,1.458,1.509,2.2,2.253
				c0.135,0.136,0.273,0.27,0.408,0.405c2.306,2.294,4.689,4.513,7.151,6.653c0.176,0.153,0.353,0.305,0.53,0.457
				c2.365,2.036,4.798,4,7.299,5.886c0.364,0.275,0.729,0.547,1.096,0.819c0.726,0.537,1.453,1.073,2.19,1.598
				c0.967,0.688,1.943,1.366,2.927,2.031c0.578,0.39,1.165,0.77,1.75,1.152c0.701,0.459,1.405,0.912,2.113,1.359
				c0.515,0.324,1.03,0.649,1.55,0.968c1.198,0.734,2.404,1.454,3.625,2.154c0.242,0.139,0.489,0.272,0.732,0.409
				c1.154,0.653,2.318,1.289,3.492,1.911c0.276,0.146,0.551,0.292,0.827,0.436c1.405,0.733,2.82,1.451,4.252,2.139
				C300.087,295.831,292.283,314.466,282.056,330.101z"/>
			<path d="M358.4,153.067v68.268c-10.693-1.367-19.769-5.325-25.6-11.248v-22.354c0-4.713-3.82-8.533-8.533-8.533
				s-8.533,3.82-8.533,8.533v25.41c-0.001,0.053,0,0.106,0,0.16v25.63c0,4.713,3.82,8.533,8.533,8.533s8.533-3.82,8.533-8.533
				v-7.872c7.47,3.991,16.212,6.493,25.6,7.435v8.971c0,4.713,3.82,8.533,8.533,8.533s8.533-3.82,8.533-8.533v-9.062
				c28.11-3.466,51.196-23.797,51.196-50.671c0-26.633-23.196-47.147-51.196-50.662V68.769c10.868,1.319,19.725,5.22,25.6,11.261
				v22.37c0,4.713,3.82,8.533,8.533,8.533s8.533-3.82,8.533-8.533V76.99c0.001-0.053,0-0.107,0-0.16V51.2
				c0-4.713-3.82-8.533-8.533-8.533s-8.533,3.82-8.533,8.533v7.773c-7.411-3.979-16.09-6.443-25.6-7.357v-8.949
				c0-4.713-3.82-8.533-8.533-8.533s-8.533,3.82-8.533,8.533v9.071c-28.004,3.512-51.204,24.027-51.204,50.663
				C307.195,129.156,330.341,149.58,358.4,153.067z M409.595,187.733c0,16.649-14.879,30.278-34.129,33.44v-66.861
				C394.61,157.53,409.595,171.295,409.595,187.733z M358.4,68.977v66.855c-19.201-3.187-34.138-16.886-34.138-33.432
				C324.262,85.959,339.251,72.192,358.4,68.977z"/>
		</g>
	</g>
</g>
<g>
</g>
<g>
</g>
<g>
</g>
<g>
</g>
<g>
</g>
<g>
</g>
<g>
</g>
<g>
</g>
<g>
</g>
<g>
</g>
<g>
</g>
<g>
</g>
<g>
</g>
<g>
</g>
<g>
</g>
</svg>
