<?xml version="1.0" encoding="iso-8859-1"?>
<!-- Generator: Adobe Illustrator 19.0.0, SVG Export Plug-In . SVG Version: 6.00 Build 0)  -->
<svg version="1.1" id="Capa_1" xmlns="http://www.w3.org/2000/svg" xmlns:xlink="http://www.w3.org/1999/xlink" x="0px" y="0px"
	 viewBox="0 0 479.294 479.294" style="enable-background:new 0 0 479.294 479.294;" xml:space="preserve">
<g>
	<path style="fill:#FFFFFF;" d="M449.294,345.794c0-54.826-44.604-99.43-99.43-99.43s-99.43,44.604-99.43,99.43
		s44.604,99.429,99.43,99.429S449.294,400.62,449.294,345.794z M411.48,360.794h-46.616v46.616h-30v-46.616h-46.616v-30h46.616
		v-46.616h30v46.616h46.616V360.794z"/>
	<path d="M414.615,233.76l58.872-58.84l-162.872-24.127L235.904,4.071l-73.276,147.444L0,177.23l117.585,115.252L91.786,455.097
		l134.653-70.317c16.58,52.374,65.638,90.443,123.425,90.443c71.368,0,129.43-58.062,129.43-129.429
		C479.294,298,453.252,256.178,414.615,233.76z M250.435,345.794c0-54.826,44.604-99.43,99.43-99.43s99.43,44.604,99.43,99.43
		s-44.604,99.429-99.43,99.429S250.435,400.62,250.435,345.794z M130.76,400.901l18.88-119.007l-86.052-84.345l119.017-18.819
		L236.23,70.825l54.676,107.376l119.194,17.656l-25.311,25.298c-11.115-3.119-22.828-4.792-34.925-4.792
		c-71.368,0-129.43,58.062-129.43,129.43c0,2.735,0.095,5.447,0.263,8.14L130.76,400.901z"/>
	<polygon points="364.864,284.178 334.864,284.178 334.864,330.794 288.248,330.794 288.248,360.794 334.864,360.794 
		334.864,407.41 364.864,407.41 364.864,360.794 411.48,360.794 411.48,330.794 364.864,330.794 	"/>
</g>
<g>
</g>
<g>
</g>
<g>
</g>
<g>
</g>
<g>
</g>
<g>
</g>
<g>
</g>
<g>
</g>
<g>
</g>
<g>
</g>
<g>
</g>
<g>
</g>
<g>
</g>
<g>
</g>
<g>
</g>
</svg>
