<?xml version='1.0' encoding='utf-8'?>
<!DOCTYPE svg PUBLIC '-//W3C//DTD SVG 1.1//EN' 'http://www.w3.org/Graphics/SVG/1.1/DTD/svg11.dtd'>
<svg version="1.1" xmlns="http://www.w3.org/2000/svg" viewBox="0 0 512 512" xmlns:xlink="http://www.w3.org/1999/xlink" enable-background="new 0 0 512 512">
  <g>
    <g>
      <path d="m80.1,405.6c3.5,2.4 17,9.1 28.4-5.3l77.2-112.8 81.7,78.8c4.3,4.1 10.2,6.3 16.2,5.6 5.9-0.6 11.3-3.7 14.8-8.6l135.5-194.3 4.9,65c1.2,16.5 16.7,19.2 21.9,18.8 11.2-0.9 19.7-10.6 18.8-21.9l-8.6-114.3c-0.8-11.2-10.6-19.7-21.9-18.8l-114.3,8.6c-11.2,0.8-19.7,10.6-18.8,21.9 0.8,11.2 10.5,19.6 21.9,18.8l65-4.9-124.2,178-81.9-79c-4.3-4.2-10.3-6.3-16.2-5.6-6,0.6-11.4,3.8-14.8,8.8l-90.9,132.8c-6.4,9.3-4,22 5.3,28.4z"/>
      <path d="M480.6,460.2H51.8V31.4c0-11.3-9.1-20.4-20.4-20.4S11,20.1,11,31.4v449.2c0,11.3,9.1,20.4,20.4,20.4h449.2    c11.3,0,20.4-9.1,20.4-20.4C501,469.3,491.9,460.2,480.6,460.2z"/>
    </g>
  </g>
</svg>
