<?xml version="1.0" encoding="iso-8859-1"?>
<!-- Generator: Adobe Illustrator 19.0.0, SVG Export Plug-In . SVG Version: 6.00 Build 0)  -->
<svg version="1.1" id="Layer_1" xmlns="http://www.w3.org/2000/svg" xmlns:xlink="http://www.w3.org/1999/xlink" x="0px" y="0px"
	 viewBox="0 0 512 512" style="enable-background:new 0 0 512 512;" xml:space="preserve">
<g>
	<g>
		<path d="M501.333,384h-32v-74.667c0-5.888-4.779-10.667-10.667-10.667S448,303.445,448,309.333v85.333
			c0,5.888,4.779,10.667,10.667,10.667h42.667c5.888,0,10.667-4.779,10.667-10.667S507.221,384,501.333,384z"/>
	</g>
</g>
<g>
	<g>
		<path d="M419.371,299.221c-4.352-1.472-9.152,0.043-11.904,3.712L384,334.208l-23.467-31.275
			c-2.752-3.669-7.509-5.184-11.904-3.712c-4.352,1.451-7.296,5.525-7.296,10.112v85.333c0,5.888,4.779,10.667,10.667,10.667
			c5.888,0,10.667-4.779,10.667-10.667v-53.333l12.8,17.067c4.032,5.376,13.056,5.376,17.067,0l12.8-17.067v53.333
			c0,5.888,4.779,10.667,10.667,10.667c5.888,0,10.667-4.779,10.667-10.667v-85.333
			C426.667,304.747,423.723,300.672,419.371,299.221z"/>
	</g>
</g>
<g>
	<g>
		<path d="M290.667,352.021l27.221-36.288c3.541-4.715,2.581-11.392-2.133-14.933c-4.715-3.52-11.371-2.581-14.933,2.133
			l-23.467,31.296l-23.488-31.296c-3.563-4.736-10.219-5.696-14.933-2.133c-4.715,3.541-5.675,10.219-2.133,14.933l27.221,36.288
			l-27.2,36.245c-3.541,4.715-2.581,11.392,2.133,14.933c1.92,1.429,4.16,2.133,6.379,2.133c3.243,0,6.443-1.472,8.555-4.267
			l23.467-31.275l23.445,31.275c2.091,2.795,5.291,4.267,8.533,4.267c2.24,0,4.48-0.704,6.4-2.133
			c4.715-3.541,5.675-10.219,2.133-14.933L290.667,352.021z"/>
	</g>
</g>
<g>
	<g>
		<path d="M373.333,277.333c5.888,0,10.667-4.779,10.667-10.667v-256C384,4.779,379.221,0,373.333,0H138.667
			c-1.429,0-2.816,0.299-4.117,0.832c-0.619,0.256-1.088,0.725-1.643,1.088c-0.597,0.384-1.28,0.683-1.792,1.195l-128,128
			c-0.491,0.491-0.768,1.152-1.152,1.728c-0.384,0.576-0.875,1.067-1.131,1.707C0.299,135.851,0,137.237,0,138.667v362.667
			C0,507.221,4.779,512,10.667,512h362.667c5.888,0,10.667-4.779,10.667-10.667v-64c0-5.888-4.779-10.667-10.667-10.667
			c-5.888,0-10.667,4.779-10.667,10.667v53.333H21.333V149.333h117.333c5.888,0,10.667-4.779,10.667-10.667V21.333h213.333v245.333
			C362.667,272.555,367.445,277.333,373.333,277.333z M128,128H36.416L128,36.416V128z"/>
	</g>
</g>
<g>
</g>
<g>
</g>
<g>
</g>
<g>
</g>
<g>
</g>
<g>
</g>
<g>
</g>
<g>
</g>
<g>
</g>
<g>
</g>
<g>
</g>
<g>
</g>
<g>
</g>
<g>
</g>
<g>
</g>
</svg>
