<?xml version="1.0" encoding="UTF-8" standalone="no"?>
<!-- Created with Inkscape (http://www.inkscape.org/) -->

<svg
   width="55.168266mm"
   height="55.213249mm"
   viewBox="0 0 55.168266 55.213249"
   version="1.1"
   id="svg350"
   xmlns:inkscape="http://www.inkscape.org/namespaces/inkscape"
   xmlns:sodipodi="http://sodipodi.sourceforge.net/DTD/sodipodi-0.dtd"
   xmlns="http://www.w3.org/2000/svg"
   xmlns:svg="http://www.w3.org/2000/svg">
  <sodipodi:namedview
     id="namedview352"
     pagecolor="#505050"
     bordercolor="#eeeeee"
     borderopacity="1"
     inkscape:showpageshadow="0"
     inkscape:pageopacity="0"
     inkscape:pagecheckerboard="0"
     inkscape:deskcolor="#505050"
     inkscape:document-units="mm"
     showgrid="false" />
  <defs
     id="defs347" />
  <g
     inkscape:label="Layer 1"
     inkscape:groupmode="layer"
     id="layer1"
     transform="translate(-95.493784,-35.510261)">
    <g
       id="g214"
       transform="matrix(0.26458333,0,0,0.26458333,95.493787,35.510258)">
      <path
         d="m 50.98,180.02 c -0.53,-2.68 -1.08,-5.36 -1.64,-8.03 -0.39,-1.88 -0.92,-3.73 -1.48,-5.57 -0.71,-2.3 -1.48,-4.59 -2.17,-6.89 -0.33,0.67 -0.53,1.32 -0.68,1.96 -0.33,1.48 -0.35,2.87 -0.86,4.03 -0.23,0.52 -0.43,1.04 -0.64,1.56 -0.69,1.68 -1.29,3.36 -1.81,5.05 -0.58,1.88 -1.06,3.76 -1.46,5.66 -0.45,2.12 -0.79,4.24 -1.04,6.38 -0.07,0.56 -0.13,1.12 -0.19,1.68 0.69,0.56 1.4,1.1 2.1,1.64 2.53,1.92 5.15,3.73 7.85,5.42 1.6,1 3.22,1.96 4.88,2.87 -0.2,-1.21 -0.38,-2.42 -0.59,-3.62 -0.7,-4.05 -1.47,-8.09 -2.28,-12.13 h 0.01 z"
         id="path208" />
      <path
         d="m 32.47,147.96 c -1.54,0.1 -3.06,0.24 -4.56,0.28 -0.98,0.03 -1.96,0.02 -2.93,-0.07 -0.64,-0.06 -1.24,-0.03 -1.82,0.03 -1.44,0.16 -2.74,0.63 -3.99,1.27 -1.19,0.61 -2.34,1.36 -3.52,2.09 -1.13,0.7 -2.3,1.37 -3.56,1.89 5.18,9.69 11.84,18.46 19.68,26.02 0.53,0.51 1.06,1.01 1.6,1.51 0.1,-2.26 0.14,-4.51 0.1,-6.75 -0.03,-1.79 -0.1,-3.58 -0.25,-5.36 -0.11,-1.27 -0.21,-2.52 -0.28,-3.74 -0.15,-2.65 -0.13,-5.21 0.27,-7.73 0.29,-1.83 0.79,-3.64 1.59,-5.43 0.6,-1.36 1.37,-2.72 2.36,-4.08 -1.57,-0.09 -3.13,-0.02 -4.67,0.08 h -0.02 z"
         id="path210" />
      <path
         d="m 208.45,100.79 c -0.11,-3.19 -0.35,-6.35 -0.74,-9.47 -0.51,-4.1 -1.26,-8.12 -2.23,-12.05 -4.78,-19.38 -14.98,-36.63 -28.9,-50.05 -2.95,-2.85 -6.08,-5.52 -9.35,-8.01 -2.53,-1.92 -5.15,-3.73 -7.85,-5.42 -2.29,-1.43 -4.65,-2.78 -7.06,-4.04 -2.13,-1.11 -4.31,-2.15 -6.52,-3.11 -2.01,-0.88 -4.06,-1.7 -6.14,-2.45 -1.92,-0.69 -3.86,-1.33 -5.83,-1.91 -1.84,-0.54 -3.7,-1.04 -5.58,-1.49 -1.77,-0.42 -3.57,-0.8 -5.37,-1.12 -1.72,-0.31 -3.45,-0.58 -5.19,-0.8 C 116.03,0.65 114.35,0.48 112.66,0.35 111.04,0.22 109.41,0.13 107.77,0.07 106.58,0.03 105.38,0 104.18,0 c -0.39,0 -0.78,0 -1.16,0 -1.55,0.02 -3.1,0.06 -4.64,0.15 -1.52,0.08 -3.03,0.2 -4.53,0.35 -1.48,0.15 -2.95,0.33 -4.42,0.53 -1.45,0.21 -2.89,0.44 -4.32,0.7 -1.42,0.26 -2.83,0.55 -4.22,0.87 -1.39,0.32 -2.76,0.66 -4.13,1.04 -1.36,0.37 -2.71,0.76 -4.04,1.18 -1.33,0.42 -2.65,0.87 -3.95,1.34 -1.3,0.47 -2.59,0.97 -3.87,1.49 -1.27,0.52 -2.54,1.06 -3.79,1.62 -1.25,0.57 -2.48,1.16 -3.7,1.77 -1.22,0.61 -2.43,1.25 -3.62,1.91 -1.2,0.66 -2.38,1.34 -3.54,2.05 -1.17,0.71 -2.32,1.44 -3.46,2.19 -1.14,0.75 -2.27,1.53 -3.38,2.33 -1.12,0.8 -2.22,1.62 -3.3,2.47 -1.09,0.85 -2.16,1.72 -3.22,2.61 -1.06,0.9 -2.11,1.81 -3.14,2.75 -1.04,0.95 -2.05,1.92 -3.05,2.91 -1.01,1 -1.99,2.02 -2.96,3.06 -0.98,1.05 -1.94,2.12 -2.87,3.21 -0.95,1.11 -1.88,2.23 -2.78,3.38 -0.92,1.17 -1.8,2.35 -2.67,3.56 -0.88,1.23 -1.74,2.47 -2.57,3.74 -0.85,1.29 -1.67,2.6 -2.45,3.93 -0.81,1.36 -1.59,2.74 -2.33,4.14 -0.77,1.44 -1.5,2.89 -2.2,4.37 -0.72,1.52 -1.41,3.06 -2.06,4.62 -0.67,1.61 -1.3,3.25 -1.89,4.9 -0.62,1.72 -1.19,3.46 -1.71,5.22 -0.55,1.84 -1.05,3.7 -1.5,5.58 -0.47,1.98 -0.9,3.99 -1.26,6.01 -0.38,2.16 -0.69,4.35 -0.94,6.55 -0.23,2.03 -0.4,4.08 -0.51,6.14 0.84,-0.88 1.7,-1.74 2.56,-2.6 0.99,-1 1.99,-2 3.01,-2.98 1.01,-0.98 2.02,-1.95 3.05,-2.91 0.04,-0.04 0.07,-0.07 0.11,-0.11 0.99,-0.91 2.01,-1.78 3.04,-2.62 1.07,-0.87 2.17,-1.71 3.28,-2.5 1.12,-0.8 2.25,-1.56 3.41,-2.28 1.16,-0.72 2.35,-1.4 3.54,-2.05 1.21,-0.65 2.42,-1.27 3.66,-1.84 1.25,-0.58 2.52,-1.11 3.8,-1.6 1.3,-0.5 2.6,-0.97 3.93,-1.39 1.34,-0.43 2.7,-0.81 4.06,-1.15 1.39,-0.35 2.79,-0.65 4.2,-0.91 1.44,-0.27 2.89,-0.48 4.35,-0.66 1.5,-0.18 3,-0.31 4.5,-0.39 1.56,-0.08 3.12,-0.1 4.68,-0.08 1.62,0.02 3.24,0.1 4.86,0.23 1.7,0.14 3.39,0.34 5.08,0.61 1.79,0.28 3.57,0.64 5.34,1.07 1.91,0.46 3.79,0.99 5.66,1.61 2.06,0.68 4.09,1.47 6.08,2.35 2.29,1.01 4.52,2.15 6.7,3.42 1.91,1.11 3.78,2.31 5.59,3.62 0.69,0.5 1.38,0.98 2.07,1.47 2.57,1.81 5.16,3.58 7.79,5.31 2.48,1.63 4.99,3.24 7.51,4.82 2.44,1.53 4.89,3.05 7.35,4.55 1.74,1.07 3.49,2.13 5.24,3.19 0.58,0.35 1.19,0.62 1.81,0.83 1.58,0.52 3.25,0.57 4.87,0.25 1.35,-0.27 2.65,-0.81 3.82,-1.57 1.18,-0.78 2.22,-1.78 3.01,-2.97 0.22,-0.33 0.43,-0.67 0.61,-1.03 0.57,-1.13 1.09,-2.26 1.57,-3.38 0.72,-1.66 1.34,-3.33 1.84,-4.99 0.6,-1.99 1.03,-3.98 1.28,-5.97 0.35,-2.84 0.31,-5.68 -0.2,-8.53 -0.62,-3.49 -1.95,-6.99 -4.13,-10.52 -1.41,-2.28 -2.06,-5.33 -2.06,-8.38 0,-2.22 0.37,-4.44 1.06,-6.35 0.58,-1.6 1.4,-2.98 2.43,-3.97 0.39,-0.37 0.79,-0.71 1.24,-0.96 h 5.04 c 1.05,0.36 2.14,0.65 3.19,1 0.98,0.32 1.93,0.68 2.79,1.2 1.59,0.96 4.13,3.04 3.87,3.93 -1.31,4.54 2.05,6.41 4.25,8.99 v 2.02 c -0.34,0.26 -0.68,0.52 -1.11,0.84 -0.41,0.31 -0.91,0.69 -1.57,1.19 -0.72,-0.08 -1.62,-0.18 -2.64,-0.28 -1.5,-0.16 -3.24,-0.35 -5.04,-0.54 h -0.06 c 0.55,3.78 1.13,7.43 1.68,11.01 0.56,3.65 1.09,7.24 1.52,10.82 0.14,1.16 0.27,2.31 0.39,3.47 0.18,1.8 0.28,3.75 0.14,5.64 -0.13,1.84 -0.48,3.63 -1.19,5.18 -0.08,0.18 -0.16,0.35 -0.24,0.53 -0.69,1.52 -1.39,3.04 -2.09,4.57 -0.7,1.51 -1.4,3.03 -2.11,4.54 -0.7,1.5 -1.42,2.99 -2.14,4.47 -0.72,1.47 -1.45,2.93 -2.2,4.37 -0.74,1.43 -1.49,2.85 -2.27,4.25 -0.77,1.38 -1.56,2.73 -2.37,4.08 -0.62,1.02 -1.24,2.03 -1.89,3.03 -0.19,0.3 -0.39,0.59 -0.58,0.88 -0.85,1.27 -1.72,2.48 -2.62,3.65 -0.9,1.17 -1.83,2.29 -2.79,3.35 -0.97,1.07 -1.96,2.07 -2.99,3.01 -1.04,0.95 -2.1,1.83 -3.2,2.64 -1.11,0.82 -2.26,1.57 -3.44,2.23 -1.2,0.68 -2.43,1.27 -3.7,1.77 -1.3,0.51 -2.63,0.93 -4,1.25 -1.41,0.33 -2.86,0.55 -4.35,0.66 -1.53,0.11 -3.12,0.1 -4.74,-0.03 -1.68,-0.14 -3.42,-0.42 -5.21,-0.83 -1.48,-0.35 -2.99,-0.78 -4.55,-1.33 -0.35,-0.12 -0.74,-0.23 -1.13,-0.32 -1.49,-0.35 -3.25,-0.47 -4.92,-0.33 -1.54,0.13 -3,0.49 -4.08,1.12 -0.27,0.15 -0.52,0.32 -0.74,0.5 -0.85,0.72 -1.71,1.35 -2.58,1.93 -1.17,0.78 -2.37,1.44 -3.58,1.99 -1.28,0.59 -2.59,1.05 -3.9,1.43 -1.39,0.4 -2.78,0.71 -4.18,0.94 -1.47,0.24 -2.95,0.41 -4.42,0.53 -1.53,0.12 -3.06,0.2 -4.57,0.27 -0.49,0.02 -0.97,0.04 -1.46,0.06 -0.34,1.3 -0.68,2.57 -1.01,3.84 -0.5,1.89 -0.99,3.77 -1.48,5.63 -0.39,1.5 -0.77,2.99 -1.14,4.48 -0.1,0.42 -0.19,0.85 -0.25,1.29 -0.11,0.74 -0.16,1.49 -0.04,2.19 0.43,2.65 0.81,5.32 1.19,7.98 0.54,3.74 1.08,7.48 1.74,11.19 0.31,1.75 0.65,3.49 1.02,5.23 0.89,0.42 1.79,0.83 2.7,1.22 2.01,0.88 4.06,1.7 6.14,2.45 1.92,0.69 3.86,1.33 5.83,1.91 1.84,0.54 3.7,1.04 5.58,1.49 1.77,0.42 3.57,0.8 5.37,1.12 1.72,0.31 3.45,0.58 5.19,0.8 1.66,0.22 3.34,0.39 5.03,0.52 1.62,0.13 3.25,0.22 4.89,0.28 1.19,0.04 2.39,0.07 3.59,0.07 0.39,0 0.78,0 1.16,0 1.55,-0.02 3.1,-0.06 4.64,-0.15 1.52,-0.08 3.03,-0.2 4.53,-0.35 1.48,-0.15 2.95,-0.33 4.42,-0.53 1.45,-0.21 2.89,-0.44 4.32,-0.7 1.42,-0.26 2.83,-0.55 4.22,-0.87 1.39,-0.32 2.76,-0.66 4.13,-1.04 1.36,-0.37 2.71,-0.76 4.04,-1.18 1.33,-0.42 2.65,-0.87 3.95,-1.34 1.3,-0.47 2.59,-0.97 3.87,-1.49 1.27,-0.52 2.54,-1.06 3.79,-1.62 1.25,-0.57 2.48,-1.16 3.7,-1.77 1.22,-0.61 2.43,-1.25 3.62,-1.91 1.2,-0.66 2.38,-1.34 3.54,-2.05 1.17,-0.71 2.32,-1.44 3.46,-2.19 1.14,-0.75 2.27,-1.53 3.38,-2.33 1.12,-0.8 2.22,-1.62 3.3,-2.47 1.09,-0.85 2.16,-1.72 3.22,-2.61 1.06,-0.9 2.11,-1.81 3.14,-2.75 1.04,-0.95 2.05,-1.92 3.05,-2.91 1.01,-1 1.99,-2.02 2.96,-3.06 0.98,-1.05 1.94,-2.12 2.87,-3.22 0.95,-1.11 1.88,-2.23 2.78,-3.38 0.92,-1.17 1.8,-2.35 2.67,-3.56 0.88,-1.23 1.74,-2.47 2.57,-3.74 0.85,-1.29 1.67,-2.6 2.45,-3.93 0.81,-1.36 1.59,-2.74 2.33,-4.14 0.77,-1.44 1.5,-2.89 2.2,-4.37 0.72,-1.52 1.41,-3.06 2.06,-4.62 0.67,-1.61 1.3,-3.25 1.89,-4.9 0.62,-1.72 1.19,-3.46 1.71,-5.22 0.55,-1.84 1.05,-3.7 1.5,-5.58 0.47,-1.98 0.9,-3.99 1.26,-6.01 0.38,-2.16 0.69,-4.35 0.94,-6.55 0.27,-2.38 0.46,-4.79 0.56,-7.21 0.07,-1.51 0.11,-3.03 0.11,-4.56 0,-1.19 -0.03,-2.37 -0.07,-3.55 v -0.03 z"
         id="path212" />
    </g>
  </g>
</svg>
