<?xml version="1.0" encoding="UTF-8"?>
<svg id="Ebene_1" data-name="Ebene 1" xmlns="http://www.w3.org/2000/svg" viewBox="0 0 1198.23 215.02">
  <g>
    <path d="M249.86,191.33h23.01v2.59h-19.83v7.47h19.06v2.59h-19.06v8.19h19.96v2.59h-23.13v-23.43h-.01Z"/>
    <path d="M288.28,202.36l-11.45-11.03h4.5l9.74,9.42,9.87-9.42h4.37l-11.45,11.03,12.91,12.39h-4.46l-11.23-10.87-11.07,10.87h-4.63l12.91-12.39h0Z"/>
    <path d="M310.53,191.33h19.28c4.27,0,6.7,.91,6.7,6.38s-.42,7.83-7.31,7.83h-15.5v9.22h-3.17v-23.43h0Zm22.81,6.05c0-2.78-1.52-3.46-4.27-3.46h-15.37v9.03h15.63c2.52,0,4.01-.91,4.01-3.33v-2.23h0Z"/>
    <path d="M340.9,191.33h3.17v20.84h18.18v2.59h-21.35v-23.43h0Z"/>
    <path d="M365.03,199.84c0-5.92,2.01-8.77,8.35-8.77h13.49c6.34,0,8.35,2.85,8.35,8.77v6.41c0,5.92-2.01,8.77-8.35,8.77h-13.49c-6.34,0-8.35-2.85-8.35-8.77v-6.41Zm27.02-1.2c0-4.08-2.46-4.98-5.5-4.98h-12.85c-3.04,0-5.5,.91-5.5,4.98v8.8c0,4.08,2.46,4.98,5.5,4.98h12.85c3.04,0,5.5-.91,5.5-4.98v-8.8Z"/>
    <path d="M400.61,191.33h18.73c6.76,0,7.83,2.23,7.83,6.63v1.91c0,3.3-1.88,4.21-4.3,4.43v.06c3.24,.58,4.01,2.26,4.01,4.4v5.99h-2.98v-5.15c0-3.66-1.78-4.11-4.66-4.11h-15.47v9.25h-3.17v-23.41Zm18.39,11.58c3.53,0,5.02-.94,5.02-3.4v-2.14c0-2.62-1.13-3.46-5.79-3.46h-14.43v8.99h15.2Z"/>
    <path d="M432.73,191.33h23.01v2.59h-19.83v7.47h19.06v2.59h-19.06v8.19h19.96v2.59h-23.13v-23.43h-.01Z"/>
    <path d="M485.55,193.92h-11.84v-2.59h26.86v2.59h-11.84v20.84h-3.17v-20.84h-.01Z"/>
    <path d="M504.21,191.33h3.17v10.06h21.16v-10.06h3.17v23.43h-3.17v-10.77h-21.16v10.77h-3.17v-23.43h0Z"/>
    <path d="M537.91,191.33h23.01v2.59h-19.83v7.47h19.06v2.59h-19.06v8.19h19.96v2.59h-23.13v-23.43h-.01Z"/>
    <path d="M578.54,191.33h3.11l8.19,20.48,8.02-20.48h4.08l7.93,20.58,8.28-20.58h3.11l-9.32,23.43h-4.08l-7.96-20.58-7.96,20.58h-4.08l-9.32-23.43h0Z"/>
    <path d="M623.92,199.84c0-5.92,2.01-8.77,8.35-8.77h13.49c6.34,0,8.35,2.85,8.35,8.77v6.41c0,5.92-2.01,8.77-8.35,8.77h-13.49c-6.34,0-8.35-2.85-8.35-8.77v-6.41Zm27.02-1.2c0-4.08-2.46-4.98-5.5-4.98h-12.85c-3.04,0-5.5,.91-5.5,4.98v8.8c0,4.08,2.46,4.98,5.5,4.98h12.85c3.04,0,5.5-.91,5.5-4.98v-8.8Z"/>
    <path d="M659.49,191.33h18.73c6.76,0,7.83,2.23,7.83,6.63v1.91c0,3.3-1.88,4.21-4.3,4.43v.06c3.24,.58,4.01,2.26,4.01,4.4v5.99h-2.98v-5.15c0-3.66-1.78-4.11-4.66-4.11h-15.47v9.25h-3.17v-23.41Zm18.39,11.58c3.53,0,5.02-.94,5.02-3.4v-2.14c0-2.62-1.13-3.46-5.79-3.46h-14.43v8.99h15.2Z"/>
    <path d="M691.61,191.33h3.17v20.84h18.18v2.59h-21.35v-23.43h0Z"/>
    <path d="M716.16,191.33h18.93c7.86,0,10,2.46,10,11.71,0,8.61-2.14,11.71-10.09,11.71h-18.83v-23.43h0Zm25.75,10.59c0-6.76-2.1-7.99-5.99-7.99h-16.6v18.25h16.08c3.85,0,6.5-.84,6.5-7.86v-2.4h0Z"/>
    <path d="M765.65,199.84c0-5.92,2.01-8.77,8.35-8.77h13.49c6.34,0,8.35,2.85,8.35,8.77v6.41c0,5.92-2.01,8.77-8.35,8.77h-13.49c-6.34,0-8.35-2.85-8.35-8.77v-6.41Zm27.02-1.2c0-4.08-2.46-4.98-5.5-4.98h-12.84c-3.04,0-5.5,.91-5.5,4.98v8.8c0,4.08,2.46,4.98,5.5,4.98h12.84c3.04,0,5.5-.91,5.5-4.98v-8.8Z"/>
    <path d="M801.42,191.33h22.33v2.59h-19.15v7.47h18.41v2.59h-18.41v10.77h-3.17v-23.43h-.01Z"/>
    <path d="M843.95,191.33h18.73c6.76,0,7.83,2.23,7.83,6.63v1.91c0,3.3-1.88,4.21-4.3,4.43v.06c3.24,.58,4.01,2.26,4.01,4.4v5.99h-2.98v-5.15c0-3.66-1.78-4.11-4.66-4.11h-15.47v9.25h-3.17v-23.41Zm18.39,11.58c3.53,0,5.01-.94,5.01-3.4v-2.14c0-2.62-1.13-3.46-5.79-3.46h-14.43v8.99h15.21Z"/>
    <path d="M876.07,191.33h23.01v2.59h-19.83v7.47h19.06v2.59h-19.06v8.19h19.96v2.59h-23.14v-23.43h0Z"/>
    <path d="M913.3,193.92h-11.84v-2.59h26.85v2.59h-11.84v20.84h-3.17v-20.84h0Z"/>
    <path d="M931.77,191.33h18.73c6.76,0,7.83,2.23,7.83,6.63v1.91c0,3.3-1.88,4.21-4.3,4.43v.06c3.24,.58,4.01,2.26,4.01,4.4v5.99h-2.98v-5.15c0-3.66-1.78-4.11-4.66-4.11h-15.47v9.25h-3.17v-23.41Zm18.39,11.58c3.53,0,5.01-.94,5.01-3.4v-2.14c0-2.62-1.13-3.46-5.79-3.46h-14.43v8.99h15.21Z"/>
    <path d="M963.27,199.84c0-5.92,2.01-8.77,8.35-8.77h13.49c6.34,0,8.35,2.85,8.35,8.77v6.41c0,5.92-2.01,8.77-8.35,8.77h-13.49c-6.34,0-8.35-2.85-8.35-8.77v-6.41Zm27.02-1.2c0-4.08-2.46-4.98-5.5-4.98h-12.84c-3.04,0-5.5,.91-5.5,4.98v8.8c0,4.08,2.46,4.98,5.5,4.98h12.84c3.04,0,5.5-.91,5.5-4.98v-8.8Z"/>
    <path d="M1043.36,206.37c0,6.37-2.07,8.64-7.93,8.64h-13.07c-6.34,0-8.35-2.85-8.35-8.77v-6.41c0-5.92,2.01-8.77,8.35-8.77h11.97c4.21,0,8.7,1.03,8.7,6.44v.84h-2.98c0-4.37-1.33-4.69-9.16-4.69h-8.22c-3.04,0-5.5,.91-5.5,4.98v8.8c0,4.08,2.46,4.98,5.5,4.98h12.39c3.17,0,5.11-1.1,5.11-4.34v-2.36h-12.01v-2.59h15.18v3.24h.02Z"/>
    <path d="M1060.24,191.33h3.95l13.91,23.43h-3.59l-2.91-4.95h-18.77l-2.91,4.95h-3.59l13.91-23.43h0Zm1.97,2.59l-7.86,13.3h15.72l-7.86-13.3Z"/>
    <path d="M1081.49,191.33h4.95l13.69,19.64,13.69-19.64h4.95v23.43h-3.17v-20.58h-.06l-14.27,20.58h-2.26l-14.27-20.58h-.06v20.58h-3.17v-23.43h-.02Z"/>
    <path d="M1124.86,191.33h3.17v23.43h-3.17v-23.43h0Z"/>
    <path d="M1134.14,191.33h4.72l21.45,20.58v-20.58h3.17v23.43h-4.72l-21.45-20.58v20.58h-3.17v-23.43h0Z"/>
    <path d="M1198.23,206.37c0,6.37-2.07,8.64-7.93,8.64h-13.07c-6.34,0-8.35-2.85-8.35-8.77v-6.41c0-5.92,2.01-8.77,8.35-8.77h11.97c4.21,0,8.7,1.03,8.7,6.44v.84h-2.98c0-4.37-1.33-4.69-9.16-4.69h-8.22c-3.04,0-5.5,.91-5.5,4.98v8.8c0,4.08,2.46,4.98,5.5,4.98h12.39c3.17,0,5.11-1.1,5.11-4.34v-2.36h-12.01v-2.59h15.18v3.24h.02Z"/>
  </g>
  <polygon points="249.86 49.8 356.99 49.8 356.99 61.85 264.62 61.85 264.62 96.66 353.38 96.66 353.38 108.72 264.62 108.72 264.62 146.84 357.59 146.84 357.59 158.89 249.86 158.89 249.86 49.8"/>
  <polygon points="379.14 49.8 402.19 49.8 465.93 141.26 529.67 49.8 552.73 49.8 552.73 158.89 537.96 158.89 537.96 63.06 537.66 63.06 471.21 158.89 460.66 158.89 394.21 63.06 393.9 63.06 393.9 158.89 379.14 158.89 379.14 49.8"/>
  <path d="M580.74,49.8h14.77v81.52c0,10.55,3.62,16.73,23.66,16.73h51.23c20.04,0,23.66-6.18,23.66-16.73V49.8h14.77v81.67c0,22.15-11.15,28.63-38.88,28.63h-50.33c-27.73,0-38.88-6.48-38.88-28.63V49.8h0Z"/>
  <path d="M854.38,103.89v-.45c9.34-2.71,16.12-6.33,16.12-25.01,0-21.4-12.96-28.63-39.63-28.63h-96.29v109.1h106.53c19.14,0,33.3-4.97,33.3-28.93,0-16.42-5.43-24.26-20.04-26.07h.01Zm-86.34-27.89h59.22c6.18,0,9.8,2.26,9.8,8.59s-3.62,8.44-9.8,8.44h-59.22v-17.03Zm59.97,56.66h-59.97v-17.03h59.97c7.23,0,12.05,1.66,12.05,9.04,0,6.33-4.82,7.99-12.05,7.99Zm167.55-82.88h-100.96v109.1h33.45v-28.33h52.59c10.4,0,13.71,3.77,13.71,15.22v13.11h33.45v-18.53c0-17.93-8.29-22.3-18.23-24.11v-.3c15.37-3.62,18.68-12.21,18.68-26.82v-6.93c0-19.59-6.93-32.4-32.7-32.4h0Zm.15,42.18c0,7.84-3.31,11.45-12.35,11.45h-55.3v-26.52h52.29c10.55,0,15.37,1.81,15.37,11.45v3.62h-.01Zm154.45-43.4h-53.64c-30.14,0-48.07,7.53-48.07,39.48v32.55c0,31.95,17.93,39.48,48.07,39.48h53.64c30.14,0,48.07-7.53,48.07-39.48v-32.55c0-31.94-17.93-39.48-48.07-39.48Zm13.71,61.63c0,15.82-3.32,21.85-19.14,21.85h-42.79c-15.82,0-19.14-6.03-19.14-21.85v-11.75c0-13.56,3.32-21.85,20.94-21.85h39.18c17.63,0,20.95,8.29,20.95,21.85v11.75h0Z"/>
  <g>
    <path d="M50.98,180.02c-.53-2.68-1.08-5.36-1.64-8.03-.39-1.88-.92-3.73-1.48-5.57-.71-2.3-1.48-4.59-2.17-6.89-.33,.67-.53,1.32-.68,1.96-.33,1.48-.35,2.87-.86,4.03-.23,.52-.43,1.04-.64,1.56-.69,1.68-1.29,3.36-1.81,5.05-.58,1.88-1.06,3.76-1.46,5.66-.45,2.12-.79,4.24-1.04,6.38-.07,.56-.13,1.12-.19,1.68,.69,.56,1.4,1.1,2.1,1.64,2.53,1.92,5.15,3.73,7.85,5.42,1.6,1,3.22,1.96,4.88,2.87-.2-1.21-.38-2.42-.59-3.62-.7-4.05-1.47-8.09-2.28-12.13h.01Z"/>
    <path d="M32.47,147.96c-1.54,.1-3.06,.24-4.56,.28-.98,.03-1.96,.02-2.93-.07-.64-.06-1.24-.03-1.82,.03-1.44,.16-2.74,.63-3.99,1.27-1.19,.61-2.34,1.36-3.52,2.09-1.13,.7-2.3,1.37-3.56,1.89,5.18,9.69,11.84,18.46,19.68,26.02,.53,.51,1.06,1.01,1.6,1.51,.1-2.26,.14-4.51,.1-6.75-.03-1.79-.1-3.58-.25-5.36-.11-1.27-.21-2.52-.28-3.74-.15-2.65-.13-5.21,.27-7.73,.29-1.83,.79-3.64,1.59-5.43,.6-1.36,1.37-2.72,2.36-4.08-1.57-.09-3.13-.02-4.67,.08h-.02Z"/>
    <path d="M208.45,100.79c-.11-3.19-.35-6.35-.74-9.47-.51-4.1-1.26-8.12-2.23-12.05-4.78-19.38-14.98-36.63-28.9-50.05-2.95-2.85-6.08-5.52-9.35-8.01-2.53-1.92-5.15-3.73-7.85-5.42-2.29-1.43-4.65-2.78-7.06-4.04-2.13-1.11-4.31-2.15-6.52-3.11-2.01-.88-4.06-1.7-6.14-2.45-1.92-.69-3.86-1.33-5.83-1.91-1.84-.54-3.7-1.04-5.58-1.49-1.77-.42-3.57-.8-5.37-1.12-1.72-.31-3.45-.58-5.19-.8-1.66-.22-3.34-.39-5.03-.52-1.62-.13-3.25-.22-4.89-.28-1.19-.04-2.39-.07-3.59-.07-.39,0-.78,0-1.16,0-1.55,.02-3.1,.06-4.64,.15-1.52,.08-3.03,.2-4.53,.35-1.48,.15-2.95,.33-4.42,.53-1.45,.21-2.89,.44-4.32,.7-1.42,.26-2.83,.55-4.22,.87s-2.76,.66-4.13,1.04c-1.36,.37-2.71,.76-4.04,1.18-1.33,.42-2.65,.87-3.95,1.34-1.3,.47-2.59,.97-3.87,1.49-1.27,.52-2.54,1.06-3.79,1.62-1.25,.57-2.48,1.16-3.7,1.77s-2.43,1.25-3.62,1.91c-1.2,.66-2.38,1.34-3.54,2.05-1.17,.71-2.32,1.44-3.46,2.19s-2.27,1.53-3.38,2.33c-1.12,.8-2.22,1.62-3.3,2.47-1.09,.85-2.16,1.72-3.22,2.61-1.06,.9-2.11,1.81-3.14,2.75-1.04,.95-2.05,1.92-3.05,2.91-1.01,1-1.99,2.02-2.96,3.06-.98,1.05-1.94,2.12-2.87,3.21-.95,1.11-1.88,2.23-2.78,3.38-.92,1.17-1.8,2.35-2.67,3.56-.88,1.23-1.74,2.47-2.57,3.74-.85,1.29-1.67,2.6-2.45,3.93-.81,1.36-1.59,2.74-2.33,4.14-.77,1.44-1.5,2.89-2.2,4.37-.72,1.52-1.41,3.06-2.06,4.62-.67,1.61-1.3,3.25-1.89,4.9-.62,1.72-1.19,3.46-1.71,5.22-.55,1.84-1.05,3.7-1.5,5.58-.47,1.98-.9,3.99-1.26,6.01-.38,2.16-.69,4.35-.94,6.55-.23,2.03-.4,4.08-.51,6.14,.84-.88,1.7-1.74,2.56-2.6,.99-1,1.99-2,3.01-2.98,1.01-.98,2.02-1.95,3.05-2.91,.04-.04,.07-.07,.11-.11,.99-.91,2.01-1.78,3.04-2.62,1.07-.87,2.17-1.71,3.28-2.5,1.12-.8,2.25-1.56,3.41-2.28s2.35-1.4,3.54-2.05c1.21-.65,2.42-1.27,3.66-1.84,1.25-.58,2.52-1.11,3.8-1.6,1.3-.5,2.6-.97,3.93-1.39,1.34-.43,2.7-.81,4.06-1.15,1.39-.35,2.79-.65,4.2-.91,1.44-.27,2.89-.48,4.35-.66,1.5-.18,3-.31,4.5-.39,1.56-.08,3.12-.1,4.68-.08,1.62,.02,3.24,.1,4.86,.23,1.7,.14,3.39,.34,5.08,.61,1.79,.28,3.57,.64,5.34,1.07,1.91,.46,3.79,.99,5.66,1.61,2.06,.68,4.09,1.47,6.08,2.35,2.29,1.01,4.52,2.15,6.7,3.42,1.91,1.11,3.78,2.31,5.59,3.62,.69,.5,1.38,.98,2.07,1.47,2.57,1.81,5.16,3.58,7.79,5.31,2.48,1.63,4.99,3.24,7.51,4.82,2.44,1.53,4.89,3.05,7.35,4.55,1.74,1.07,3.49,2.13,5.24,3.19,.58,.35,1.19,.62,1.81,.83,1.58,.52,3.25,.57,4.87,.25,1.35-.27,2.65-.81,3.82-1.57,1.18-.78,2.22-1.78,3.01-2.97,.22-.33,.43-.67,.61-1.03,.57-1.13,1.09-2.26,1.57-3.38,.72-1.66,1.34-3.33,1.84-4.99,.6-1.99,1.03-3.98,1.28-5.97,.35-2.84,.31-5.68-.2-8.53-.62-3.49-1.95-6.99-4.13-10.52-1.41-2.28-2.06-5.33-2.06-8.38,0-2.22,.37-4.44,1.06-6.35,.58-1.6,1.4-2.98,2.43-3.97,.39-.37,.79-.71,1.24-.96h5.04c1.05,.36,2.14,.65,3.19,1,.98,.32,1.93,.68,2.79,1.2,1.59,.96,4.13,3.04,3.87,3.93-1.31,4.54,2.05,6.41,4.25,8.99v2.02c-.34,.26-.68,.52-1.11,.84-.41,.31-.91,.69-1.57,1.19-.72-.08-1.62-.18-2.64-.28-1.5-.16-3.24-.35-5.04-.54h-.06c.55,3.78,1.13,7.43,1.68,11.01,.56,3.65,1.09,7.24,1.52,10.82,.14,1.16,.27,2.31,.39,3.47,.18,1.8,.28,3.75,.14,5.64-.13,1.84-.48,3.63-1.19,5.18-.08,.18-.16,.35-.24,.53-.69,1.52-1.39,3.04-2.09,4.57-.7,1.51-1.4,3.03-2.11,4.54-.7,1.5-1.42,2.99-2.14,4.47-.72,1.47-1.45,2.93-2.2,4.37-.74,1.43-1.49,2.85-2.27,4.25-.77,1.38-1.56,2.73-2.37,4.08-.62,1.02-1.24,2.03-1.89,3.03-.19,.3-.39,.59-.58,.88-.85,1.27-1.72,2.48-2.62,3.65s-1.83,2.29-2.79,3.35c-.97,1.07-1.96,2.07-2.99,3.01-1.04,.95-2.1,1.83-3.2,2.64-1.11,.82-2.26,1.57-3.44,2.23-1.2,.68-2.43,1.27-3.7,1.77-1.3,.51-2.63,.93-4,1.25-1.41,.33-2.86,.55-4.35,.66-1.53,.11-3.12,.1-4.74-.03-1.68-.14-3.42-.42-5.21-.83-1.48-.35-2.99-.78-4.55-1.33-.35-.12-.74-.23-1.13-.32-1.49-.35-3.25-.47-4.92-.33-1.54,.13-3,.49-4.08,1.12-.27,.15-.52,.32-.74,.5-.85,.72-1.71,1.35-2.58,1.93-1.17,.78-2.37,1.44-3.58,1.99-1.28,.59-2.59,1.05-3.9,1.43-1.39,.4-2.78,.71-4.18,.94-1.47,.24-2.95,.41-4.42,.53-1.53,.12-3.06,.2-4.57,.27-.49,.02-.97,.04-1.46,.06-.34,1.3-.68,2.57-1.01,3.84-.5,1.89-.99,3.77-1.48,5.63-.39,1.5-.77,2.99-1.14,4.48-.1,.42-.19,.85-.25,1.29-.11,.74-.16,1.49-.04,2.19,.43,2.65,.81,5.32,1.19,7.98,.54,3.74,1.08,7.48,1.74,11.19,.31,1.75,.65,3.49,1.02,5.23,.89,.42,1.79,.83,2.7,1.22,2.01,.88,4.06,1.7,6.14,2.45,1.92,.69,3.86,1.33,5.83,1.91,1.84,.54,3.7,1.04,5.58,1.49,1.77,.42,3.57,.8,5.37,1.12,1.72,.31,3.45,.58,5.19,.8,1.66,.22,3.34,.39,5.03,.52,1.62,.13,3.25,.22,4.89,.28,1.19,.04,2.39,.07,3.59,.07,.39,0,.78,0,1.16,0,1.55-.02,3.1-.06,4.64-.15,1.52-.08,3.03-.2,4.53-.35,1.48-.15,2.95-.33,4.42-.53,1.45-.21,2.89-.44,4.32-.7,1.42-.26,2.83-.55,4.22-.87,1.39-.32,2.76-.66,4.13-1.04,1.36-.37,2.71-.76,4.04-1.18,1.33-.42,2.65-.87,3.95-1.34s2.59-.97,3.87-1.49c1.27-.52,2.54-1.06,3.79-1.62,1.25-.57,2.48-1.16,3.7-1.77s2.43-1.25,3.62-1.91c1.2-.66,2.38-1.34,3.54-2.05,1.17-.71,2.32-1.44,3.46-2.19s2.27-1.53,3.38-2.33c1.12-.8,2.22-1.62,3.3-2.47,1.09-.85,2.16-1.72,3.22-2.61,1.06-.9,2.11-1.81,3.14-2.75,1.04-.95,2.05-1.92,3.05-2.91,1.01-1,1.99-2.02,2.96-3.06,.98-1.05,1.94-2.12,2.87-3.22,.95-1.11,1.88-2.23,2.78-3.38,.92-1.17,1.8-2.35,2.67-3.56,.88-1.23,1.74-2.47,2.57-3.74,.85-1.29,1.67-2.6,2.45-3.93,.81-1.36,1.59-2.74,2.33-4.14,.77-1.44,1.5-2.89,2.2-4.37,.72-1.52,1.41-3.06,2.06-4.62,.67-1.61,1.3-3.25,1.89-4.9,.62-1.72,1.19-3.46,1.71-5.22,.55-1.84,1.05-3.7,1.5-5.58,.47-1.98,.9-3.99,1.26-6.01,.38-2.16,.69-4.35,.94-6.55,.27-2.38,.46-4.79,.56-7.21,.07-1.51,.11-3.03,.11-4.56,0-1.19-.03-2.37-.07-3.55v-.03Z"/>
  </g>
</svg>