<?xml version="1.0" encoding="iso-8859-1"?>
<!-- Generator: Adobe Illustrator 19.0.0, SVG Export Plug-In . SVG Version: 6.00 Build 0)  -->
<svg version="1.1" id="Layer_1" xmlns="http://www.w3.org/2000/svg" xmlns:xlink="http://www.w3.org/1999/xlink" x="0px" y="0px"
	 viewBox="0 0 511.999 511.999" style="enable-background:new 0 0 511.999 511.999;" xml:space="preserve">
<g>
	<g>
		<path d="M167,250.501c-19.288,0-34.979,15.691-34.979,34.979s15.692,34.98,34.979,34.98s34.979-15.692,34.979-34.98
			C201.979,266.192,186.288,250.501,167,250.501z M167.001,304.256c-10.353,0-18.776-8.423-18.776-18.777
			c-0.001-10.353,8.423-18.776,18.776-18.776s18.776,8.423,18.776,18.776S177.354,304.256,167.001,304.256z"/>
	</g>
</g>
<g>
	<g>
		<path d="M344.999,250.501c-19.288,0-34.98,15.691-34.98,34.979s15.691,34.98,34.98,34.98c19.288,0,34.979-15.692,34.979-34.98
			C379.978,266.192,364.287,250.501,344.999,250.501z M344.999,304.256c-10.353,0-18.777-8.423-18.777-18.777
			c0-10.353,8.423-18.776,18.777-18.776c10.353,0,18.776,8.423,18.776,18.776S355.352,304.256,344.999,304.256z"/>
	</g>
</g>
<g>
	<g>
		<path d="M255.999,242.631c-14.22,0-25.788,11.568-25.788,25.788s11.568,25.788,25.788,25.788s25.788-11.568,25.788-25.788
			C281.788,254.2,270.22,242.631,255.999,242.631z M255.999,278.004c-5.286,0-9.585-4.299-9.585-9.585
			c0-5.286,4.299-9.585,9.585-9.585s9.585,4.299,9.585,9.585C265.584,273.705,261.285,278.004,255.999,278.004z"/>
	</g>
</g>
<g>
	<g>
		<path d="M150.153,191.289h-21.667v-21.666c0-4.474-3.627-8.102-8.102-8.102H88.284c-4.474,0-8.102,3.626-8.102,8.102v21.666
			H58.515c-4.474,0-8.102,3.627-8.102,8.102v32.099c0,4.474,3.627,8.102,8.102,8.102h21.666v21.667c0,4.474,3.627,8.102,8.102,8.102
			h32.099c4.474,0,8.102-3.627,8.102-8.102v-21.667h21.668c4.474,0,8.102-3.627,8.102-8.102V199.39
			C158.254,194.916,154.627,191.289,150.153,191.289z M142.051,223.388h-21.667c-4.474,0-8.102,3.626-8.102,8.102v21.667H96.386
			v-21.667c0-4.475-3.627-8.102-8.102-8.102H66.617v-15.896h21.666c4.474,0,8.102-3.627,8.102-8.102v-21.666h15.896v21.666
			c0,4.474,3.627,8.102,8.102,8.102h21.668V223.388z"/>
	</g>
</g>
<g>
	<g>
		<circle cx="407.67" cy="185.076" r="15.453"/>
	</g>
</g>
<g>
	<g>
		<circle cx="407.67" cy="245.688" r="15.453"/>
	</g>
</g>
<g>
	<g>
		<circle cx="377.358" cy="215.388" r="15.453"/>
	</g>
</g>
<g>
	<g>
		<circle cx="437.97" cy="215.388" r="15.453"/>
	</g>
</g>
<g>
	<g>
		<path d="M482.439,392.609c-2.676-3.588-7.752-4.325-11.338-1.651c-10.637,7.933-23.295,12.127-36.605,12.127
			c-18.499,0-33.549-15.05-33.549-33.548v-54.819c0-3.627-2.412-6.814-5.903-7.798c-3.493-0.985-7.213,0.473-9.107,3.567
			c-8.804,14.377-24.108,22.96-40.938,22.96c-17.541,0-33.675-9.571-42.108-24.979c-1.422-2.597-4.146-4.212-7.107-4.212h-79.568
			c-2.961,0-5.685,1.615-7.107,4.212c-8.432,15.408-24.568,24.979-42.108,24.979c-16.83,0-32.134-8.584-40.939-22.961
			c-1.895-3.094-5.616-4.551-9.107-3.567c-3.491,0.984-5.903,4.17-5.903,7.798v54.819c0,18.499-15.05,33.548-33.548,33.548
			c-33.802,0.001-61.301-27.498-61.301-61.299V186.071c0-6.566,1.371-12.919,4.074-18.885c1.846-4.076,0.04-8.876-4.036-10.724
			c-4.076-1.847-8.877-0.04-10.724,4.036C1.857,168.58,0,177.184,0,186.071v155.714c0,42.736,34.768,77.504,77.504,77.504
			c27.433,0,49.751-22.319,49.751-49.751v-33.615c11.124,8.804,24.997,13.73,39.746,13.73c21.822,0,42.014-11.069,53.804-29.191
			h70.389c11.791,18.123,31.983,29.191,53.804,29.191c14.748,0,28.622-4.927,39.745-13.729v33.614
			c0,27.434,22.319,49.751,49.752,49.751c16.828,0,32.835-5.305,46.292-15.341C484.375,401.271,485.114,396.195,482.439,392.609z"/>
	</g>
</g>
<g>
	<g>
		<path d="M458.063,124.579v-6.66c0-13.9-11.309-25.208-25.209-25.208h-62.765c-13.901,0-25.209,11.309-25.209,25.208v6.113h-2.116
			c-10.491,0-20.205,4.566-26.872,12.407h-72.414c-4.474,0-8.102,3.627-8.102,8.102c0,4.474,3.627,8.102,8.102,8.102
			c0,0,72.973,0,72.979,0c2.063,0,3.997,1.211,5,2.995c0.457,0.812,0.714,1.787,0.714,2.719v41.234
			c0,8.069-6.566,14.635-14.635,14.635H204.463c-8.069,0-14.634-6.566-14.634-14.635v-41.234c0-1.28,0.454-2.564,1.263-3.557
			c1.073-1.317,2.744-2.157,4.451-2.157h15.528c4.474,0,8.102-3.627,8.102-8.102c0-4.474-3.627-8.102-8.102-8.102h-14.963
			c-6.667-7.84-16.381-12.407-26.872-12.407h-2.117v-6.113c0-13.9-11.308-25.208-25.208-25.208H79.147
			c-13.901,0-25.209,11.309-25.209,25.208v6.647c-8.295,1.092-16.31,3.85-23.533,8.141c-3.847,2.285-5.113,7.256-2.828,11.103
			c2.286,3.847,7.255,5.114,11.103,2.828c7.052-4.188,15.13-6.401,23.36-6.401h96.978h10.219c3.76,0,7.338,1.081,10.377,3.046
			c-2.254,2.379-3.948,5.26-4.952,8.432c-0.017,0.053-0.038,0.104-0.055,0.157c-0.65,2.081-0.981,4.305-0.981,6.485v41.234
			c0,17.004,13.833,30.839,30.837,30.839h103.073c17.004,0,30.839-13.835,30.839-30.839v-41.234c0-2.191-0.329-4.393-0.981-6.485
			c-0.016-0.053-0.038-0.104-0.054-0.157c-1.003-3.174-2.697-6.055-4.953-8.433c3.039-1.965,6.616-3.046,10.377-3.046h10.218h96.979
			c25.273,0,45.835,20.561,45.835,45.835v155.714c0,9.494-2.121,18.605-6.302,27.079c-1.98,4.012-0.333,8.87,3.68,10.85
			c1.153,0.569,2.375,0.838,3.579,0.838c2.987,0,5.86-1.659,7.271-4.519c5.292-10.725,7.975-22.247,7.975-34.25V186.071
			C512,154.61,488.454,128.563,458.063,124.579z M150.916,124.033h-0.001H70.141v-6.113c0-4.966,4.04-9.005,9.006-9.005h62.765
			c4.966,0,9.005,4.04,9.005,9.005V124.033z M441.86,124.033h-0.001h-80.776v-6.113c0-4.966,4.04-9.005,9.006-9.005h62.765
			c4.966,0,9.006,4.04,9.006,9.005V124.033z"/>
	</g>
</g>
<g>
</g>
<g>
</g>
<g>
</g>
<g>
</g>
<g>
</g>
<g>
</g>
<g>
</g>
<g>
</g>
<g>
</g>
<g>
</g>
<g>
</g>
<g>
</g>
<g>
</g>
<g>
</g>
<g>
</g>
</svg>
