<?xml version="1.0" encoding="iso-8859-1"?>
<!-- Generator: Adobe Illustrator 16.0.0, SVG Export Plug-In . SVG Version: 6.00 Build 0)  -->
<!DOCTYPE svg PUBLIC "-//W3C//DTD SVG 1.1//EN" "http://www.w3.org/Graphics/SVG/1.1/DTD/svg11.dtd">
<svg version="1.1" id="Capa_1" xmlns="http://www.w3.org/2000/svg" xmlns:xlink="http://www.w3.org/1999/xlink" x="0px" y="0px"
	 width="113.178px" height="113.178px" viewBox="0 0 113.178 113.178" style="enable-background:new 0 0 113.178 113.178;"
	 xml:space="preserve">
<g>
	<path d="M15.81,100.849C4.154,100.849,0,84.649,0,69.489c0-13.26,3.063-27.465,8.192-37.999
		c4.259-8.741,11.899-19.162,24.123-19.162h0.116l0.104,0.051c0.097,0.048,9.839,4.77,22.772,6.408l7.734-0.015
		c12.355-1.658,20.306-6.192,20.385-6.237l0.116-0.067h0.134c18.277,0,29.502,34.444,29.502,59.14
		c0,8.281-1.189,15.304-3.441,20.306c-2.537,5.635-6.426,8.612-11.242,8.612c-7.532,0-11.262-7.299-15.211-15.027
		c-4.723-9.245-10.076-19.725-23.037-19.725c-15.764,0-20.902,9.825-25.872,19.328C30.14,93.2,26.14,100.849,15.81,100.849z
		 M32.203,13.328C20.562,13.394,13.212,23.47,9.092,31.928C4.026,42.331,1,56.372,1,69.489c0,18.442,5.813,30.359,14.81,30.359
		c9.725,0,13.411-7.049,17.68-15.212c4.869-9.312,10.389-19.864,26.758-19.864c13.572,0,19.074,10.769,23.929,20.271
		c3.972,7.771,7.399,14.481,14.319,14.481c4.457,0,7.933-2.699,10.33-8.023c2.193-4.874,3.354-11.753,3.354-19.895
		c0-24.219-10.791-57.975-28.373-58.139c-1.058,0.581-8.919,4.723-20.697,6.299l-7.862,0.016
		C42.814,18.211,33.312,13.853,32.203,13.328z M39.872,59.71c-5.854,0-10.617-4.763-10.617-10.617s4.763-10.616,10.617-10.616
		s10.617,4.763,10.617,10.616C50.489,54.947,45.727,59.71,39.872,59.71z M37.389,58.33c1.635,0.442,3.331,0.444,4.968-0.001
		c-0.447-0.772-0.682-1.64-0.682-2.543c0-2.814,2.29-5.104,5.104-5.104c0.849,0,1.67,0.209,2.409,0.608
		c0.169-0.718,0.254-1.454,0.254-2.197c0-1.163-0.209-2.298-0.621-3.382c-0.644,0.283-1.34,0.431-2.042,0.431
		c-2.814,0-5.104-2.29-5.104-5.104c0-0.438,0.058-0.874,0.171-1.3c-1.326-0.284-2.618-0.284-3.946,0
		c0.114,0.427,0.171,0.862,0.171,1.3c0,2.814-2.289,5.104-5.104,5.104c-0.702,0-1.398-0.146-2.042-0.431
		c-0.413,1.085-0.622,2.22-0.622,3.382c0,0.744,0.085,1.48,0.254,2.198c0.739-0.4,1.561-0.609,2.41-0.609
		c2.814,0,5.104,2.289,5.104,5.104C38.07,56.689,37.837,57.556,37.389,58.33z M30.806,52.303c0.935,2.631,2.983,4.738,5.576,5.752
		c0.451-0.676,0.688-1.455,0.688-2.27c0-2.263-1.841-4.104-4.104-4.104C32.198,51.682,31.457,51.896,30.806,52.303z M46.779,51.682
		c-2.264,0-4.104,1.841-4.104,4.104c0,0.814,0.237,1.593,0.688,2.27c2.593-1.014,4.642-3.122,5.576-5.753
		C48.288,51.896,47.547,51.682,46.779,51.682z M42.826,39.941c-0.101,0.359-0.151,0.727-0.151,1.097
		c0,2.264,1.841,4.104,4.104,4.104c0.58,0,1.155-0.126,1.685-0.367C47.315,42.498,45.286,40.736,42.826,39.941z M31.28,44.775
		c0.53,0.241,1.106,0.367,1.687,0.367c2.263,0,4.104-1.841,4.104-4.104c0-0.368-0.051-0.735-0.151-1.097
		C34.459,40.735,32.43,42.497,31.28,44.775z M69.367,57.09c-4.01,0-7.271-3.262-7.271-7.271c0-4.01,3.262-7.271,7.271-7.271
		s7.271,3.262,7.271,7.271C76.639,53.829,73.377,57.09,69.367,57.09z M66.984,53.384h4.77l-2.23,2.704
		c3.309-0.081,5.988-2.734,6.112-6.03l-2.604,2.146v-4.77l2.604,2.146c-0.124-3.297-2.806-5.951-6.112-6.031l2.23,2.705h-4.77
		l2.229-2.705c-3.361,0.082-6.077,2.824-6.115,6.197l2.805-2.313v4.771l-2.805-2.313c0.038,3.372,2.752,6.114,6.114,6.196
		L66.984,53.384z M88.064,46.982c-2.062,0-3.738-1.676-3.738-3.736c0-2.06,1.678-3.737,3.738-3.737c2.06,0,3.736,1.677,3.736,3.737
		C91.801,45.306,90.124,46.982,88.064,46.982z M88.064,40.508c-1.51,0-2.738,1.228-2.738,2.737c0,1.509,1.229,2.736,2.738,2.736
		c1.51,0,2.736-1.228,2.736-2.736C90.801,41.735,89.572,40.508,88.064,40.508z M80.854,40.508c-2.061,0-3.736-1.677-3.736-3.737
		s1.677-3.737,3.736-3.737c2.061,0,3.737,1.677,3.737,3.737S82.914,40.508,80.854,40.508z M80.854,34.033
		c-1.509,0-2.736,1.228-2.736,2.737c0,1.509,1.229,2.737,2.736,2.737c1.51,0,2.737-1.228,2.737-2.737
		C83.591,35.261,82.363,34.033,80.854,34.033z M94.538,38.937c-2.062,0-3.737-1.677-3.737-3.737s1.678-3.737,3.737-3.737
		s3.735,1.677,3.735,3.737S96.599,38.937,94.538,38.937z M94.538,32.461c-1.509,0-2.737,1.228-2.737,2.737
		c0,1.509,1.229,2.737,2.737,2.737c1.508,0,2.735-1.228,2.735-2.737C97.273,33.689,96.047,32.461,94.538,32.461z M26.856,38.616
		c-4.459,0-8.088-3.628-8.088-8.087s3.629-8.087,8.088-8.087s8.087,3.628,8.087,8.087S31.315,38.616,26.856,38.616z M26.812,23.442
		c-3.888,0.024-7.044,3.194-7.044,7.087s3.155,7.063,7.043,7.087l-2.499-3.032h5.087l-2.497,3.032
		c3.841-0.024,6.967-3.12,7.04-6.949l-2.921,2.406v-5.088l2.921,2.409c-0.072-3.831-3.199-6.929-7.041-6.952l2.499,3.032h-5.089
		L26.812,23.442z M26.432,35.584l0.424,0.515l0.424-0.515H26.432z M32.021,30.107v0.848l0.514-0.424L32.021,30.107z M26.432,25.476
		h0.848l-0.424-0.514L26.432,25.476z M22.911,33.073l-3.086-2.543l3.086-2.545V33.073z M21.398,30.53l0.514,0.424v-0.848
		L21.398,30.53z M57.025,32.964c-1.453,0-2.825-0.648-3.776-1.782l-0.045,0.102l-0.425-0.676l0.04-0.017l-0.105-0.189
		c-0.423-0.759-0.637-1.563-0.637-2.389c0-1.311,0.508-2.545,1.429-3.477l0.451-0.456l0.332,0.549
		c0.38,0.627,0.864,1.288,1.401,1.909l0.282,0.328l-0.283,0.326c-0.694,0.802-1.264,1.601-1.646,2.31
		c-0.152,0.265-0.275,0.505-0.375,0.723c0.24-0.111,0.478-0.235,0.71-0.369c0.723-0.392,1.543-0.976,2.319-1.65l0.329-0.285
		l0.326,0.284c0.786,0.681,1.606,1.265,2.312,1.646c0.237,0.137,0.477,0.262,0.721,0.375c-0.101-0.217-0.22-0.455-0.366-0.709
		c-0.395-0.729-0.963-1.527-1.654-2.322l-0.285-0.327l0.285-0.328c0.537-0.619,1.009-1.263,1.403-1.91l0.333-0.548l0.45,0.457
		c0.922,0.935,1.429,2.169,1.429,3.476c0,0.823-0.215,1.627-0.639,2.389l-0.105,0.189l0.037,0.017l-0.146,0.182l-0.271,0.487
		l-0.043-0.101C59.859,32.314,58.484,32.964,57.025,32.964z M54.429,30.966c1.443,1.285,3.763,1.276,5.194,0.001
		c-0.152-0.078-0.303-0.16-0.449-0.245c-0.665-0.359-1.404-0.87-2.146-1.484c-0.736,0.609-1.479,1.121-2.162,1.491
		C54.724,30.812,54.577,30.89,54.429,30.966z M59.396,26.864c0.596,0.719,1.094,1.438,1.457,2.1
		c0.084-0.313,0.125-0.631,0.125-0.951c0-0.828-0.256-1.621-0.729-2.286C59.986,26.111,59.701,26.491,59.396,26.864z M53.805,25.729
		c-0.473,0.663-0.729,1.455-0.729,2.285c0,0.32,0.041,0.637,0.123,0.948c0.355-0.649,0.856-1.37,1.457-2.097
		C54.348,26.488,54.063,26.108,53.805,25.729z M67.109,32.514c-1.912,0-3.468-1.556-3.468-3.468s1.556-3.468,3.468-3.468
		s3.469,1.556,3.469,3.468S69.021,32.514,67.109,32.514z M67.109,26.579c-1.359,0-2.468,1.107-2.468,2.468s1.107,2.468,2.468,2.468
		c1.361,0,2.469-1.107,2.469-2.468S68.471,26.579,67.109,26.579z M47.72,32.514c-1.912,0-3.468-1.556-3.468-3.468
		s1.556-3.468,3.468-3.468s3.468,1.556,3.468,3.468S49.632,32.514,47.72,32.514z M47.72,26.579c-1.36,0-2.468,1.107-2.468,2.468
		s1.107,2.468,2.468,2.468c1.361,0,2.468-1.107,2.468-2.468S49.081,26.579,47.72,26.579z M87.326,32.461
		c-2.06,0-3.735-1.677-3.735-3.737c0-2.06,1.677-3.736,3.735-3.736c2.062,0,3.738,1.676,3.738,3.736
		C91.064,30.784,89.388,32.461,87.326,32.461z M87.326,25.987c-1.508,0-2.735,1.228-2.735,2.736c0,1.51,1.228,2.737,2.735,2.737
		c1.511,0,2.738-1.228,2.738-2.737C90.064,27.215,88.837,25.987,87.326,25.987z M57.025,25.813L56.7,25.532
		c-0.541-0.467-1.084-0.878-1.612-1.222l-0.805-0.522l0.89-0.36c0.6-0.242,1.224-0.365,1.854-0.365h0.008
		c0.625,0,1.246,0.122,1.845,0.363l0.892,0.358l-0.805,0.524c-0.525,0.343-1.068,0.754-1.611,1.224L57.025,25.813z M56.517,24.096
		c0.169,0.129,0.339,0.263,0.509,0.402c0.17-0.14,0.34-0.274,0.51-0.403c-0.166-0.022-0.334-0.033-0.502-0.033v-0.5l-0.006,0.5
		C56.856,24.062,56.686,24.073,56.517,24.096z"/>
</g>
<g>
</g>
<g>
</g>
<g>
</g>
<g>
</g>
<g>
</g>
<g>
</g>
<g>
</g>
<g>
</g>
<g>
</g>
<g>
</g>
<g>
</g>
<g>
</g>
<g>
</g>
<g>
</g>
<g>
</g>
</svg>
